<?xml version="1.0" standalone="no"?>
<!DOCTYPE svg PUBLIC "-//W3C//DTD SVG 1.1//EN" "http://www.w3.org/Graphics/SVG/1.1/DTD/svg11.dtd">
<svg xmlns="http://www.w3.org/2000/svg" version="1.1" viewBox="0.00 0.00 1115.00 1213.00" width="1115" height="1213">
<clipPath id="clipping-path-0">
<path d="   M 0.00 0.00   L 1115.00 0.00   L 1115.00 1213.00   L 0.00 1213.00   L 0.00 0.00   Z"/>
</clipPath>
<g stroke-width="1.00" fill="none" stroke-linecap="butt" clip-path="url(#clipping-path-0)">
<path stroke="#531213" vector-effect="non-scaling-stroke" d="   M 616.32 812.22   L 616.00 795.50   L 615.38 785.83   L 614.32 782.72   L 614.32 782.72   L 612.76 780.79   L 610.56 779.23   L 608.94 778.89   L 606.95 779.18   L 601.95 781.41   L 585.94 791.56   L 584.24 792.34   L 582.79 792.84   L 577.93 794.24   L 574.12 794.26   L 574.00 794.24   L 559.48 790.48   L 551.83 788.15   L 545.64 786.31   L 534.44 782.72   L 524.53 780.15   L 522.46 779.85   L 520.22 779.55   L 517.18 779.20   L 512.81 779.58   L 508.70 780.67   L 508.70 780.67   L 508.16 780.88   L 497.60 785.75   L 497.60 785.75   L 489.81 790.35   L 482.39 795.64   L 479.77 798.57   L 478.64 801.31   L 478.27 804.49   L 477.55 815.13"/>
</g>
<path fill="#000000" d="   M 690.06 124.25   L 690.20 123.38   L 701.32 111.32   L 702.01 111.01   L 702.71 111.30   L 702.75 111.34   L 709.41 117.57   L 715.68 121.04   L 722.64 122.78   L 729.46 122.68   L 735.92 120.68   L 738.72 118.75   L 740.68 116.24   L 741.79 113.08   L 741.78 109.76   L 740.54 106.43   L 737.97 103.53   L 732.01 100.14   L 722.66 97.16   L 719.51 96.27   L 710.60 93.00   L 703.36 88.79   L 698.10 83.80   L 694.77 78.14   L 693.27 71.73   L 693.57 64.90   L 694.70 60.44   L 696.51 56.48   L 700.82 50.99   L 706.99 46.55   L 714.29 43.61   L 722.89 42.09   L 732.49 42.29   L 741.35 44.45   L 749.93 48.88   L 757.70 55.49   L 758.01 56.27   L 757.68 57.05   L 746.52 68.22   L 745.79 68.51   L 745.08 68.18   L 745.08 68.18   L 745.05 68.15   L 741.47 64.42   L 737.57 61.49   L 733.64 59.54   L 729.46 58.42   L 723.69 58.31   L 717.56 59.82   L 714.59 61.60   L 712.62 64.11   L 711.68 67.34   L 712.05 70.68   L 713.49 73.33   L 715.99 75.51   L 720.45 77.89   L 724.59 79.41   L 725.11 79.55   L 737.60 83.29   L 746.26 87.11   L 752.65 91.67   L 757.10 97.27   L 759.42 103.11   L 760.26 109.54   L 759.42 117.68   L 758.16 121.54   L 756.39 125.03   L 751.95 130.44   L 746.20 134.58   L 739.08 137.52   L 731.09 139.05   L 724.63 139.35   L 718.45 138.94   L 712.55 137.84   L 706.92 136.03   L 706.92 136.03   L 699.00 132.00   L 691.70 126.39   L 690.06 124.25   Z"/>
<path fill="#000000" d="   M 886.81 69.61   L 886.81 69.61   L 886.13 69.54   L 881.25 64.58   L 875.70 61.09   L 871.91 59.66   L 867.86 58.78   L 858.97 58.72   L 853.19 59.90   L 847.94 62.07   L 847.94 62.07   L 842.18 66.11   L 837.23 71.67   L 834.86 75.71   L 833.16 80.22   L 832.09 85.35   L 831.77 90.65   L 832.20 95.94   L 833.38 101.04   L 835.18 105.50   L 837.63 109.47   L 843.43 115.61   L 850.12 119.86   L 857.48 122.19   L 865.68 122.72   L 872.29 121.85   L 878.39 119.84   L 882.57 117.61   L 884.49 115.87   L 884.97 113.89   L 884.96 102.67   L 884.31 102.04   L 862.70 102.04   L 862.08 101.56   L 862.06 101.40   L 862.06 87.77   L 862.06 87.77   L 862.53 87.30   L 902.08 87.30   L 902.42 87.40   L 902.70 87.92   L 902.70 123.41   L 902.36 124.88   L 901.41 126.05   L 892.69 131.82   L 883.39 135.95   L 883.39 135.95   L 876.73 137.83   L 869.81 138.96   L 862.89 139.29   L 856.16 138.80   L 849.69 137.54   L 843.55 135.53   L 837.79 132.79   L 832.49 129.37   L 827.72 125.27   L 823.53 120.54   L 819.98 115.16   L 817.16 109.20   L 815.21 102.98   L 814.05 96.27   L 813.87 86.22   L 815.46 76.85   L 818.81 68.02   L 823.74 60.23   L 827.59 55.91   L 831.96 52.10   L 836.81 48.84   L 842.10 46.16   L 847.75 44.12   L 853.76 42.73   L 859.77 42.05   L 866.02 42.03   L 875.88 43.45   L 884.88 46.65   L 884.88 46.65   L 892.66 51.36   L 899.66 57.68   L 899.60 58.93   L 899.58 58.95   L 886.81 69.61   Z"/>
<path fill="#000000" d="   M 1019.35 124.16   L 1019.49 123.30   L 1030.65 111.28   L 1031.35 110.97   L 1032.05 111.27   L 1032.08 111.31   L 1038.72 117.56   L 1044.97 121.05   L 1051.92 122.82   L 1058.74 122.74   L 1065.21 120.77   L 1068.02 118.85   L 1069.98 116.35   L 1071.10 113.20   L 1071.11 109.88   L 1069.88 106.55   L 1067.32 103.63   L 1061.38 100.23   L 1052.04 97.21   L 1048.89 96.31   L 1040.00 93.00   L 1032.78 88.76   L 1027.53 83.76   L 1024.23 78.09   L 1022.76 71.68   L 1023.08 64.85   L 1024.23 60.39   L 1026.05 56.44   L 1030.38 50.97   L 1036.57 46.55   L 1043.88 43.64   L 1052.48 42.16   L 1062.07 42.39   L 1070.93 44.59   L 1079.49 49.04   L 1087.23 55.69   L 1087.53 56.47   L 1087.20 57.25   L 1076.00 68.37   L 1075.27 68.66   L 1074.56 68.33   L 1074.53 68.29   L 1070.97 64.55   L 1067.08 61.61   L 1063.16 59.65   L 1058.98 58.51   L 1053.21 58.37   L 1047.08 59.86   L 1044.11 61.63   L 1042.13 64.14   L 1041.17 67.36   L 1041.54 70.70   L 1042.96 73.35   L 1045.45 75.54   L 1049.90 77.94   L 1054.04 79.47   L 1054.56 79.62   L 1067.02 83.40   L 1075.67 87.25   L 1082.04 91.84   L 1086.47 97.45   L 1088.77 103.29   L 1089.58 109.73   L 1088.71 117.86   L 1087.44 121.71   L 1085.65 125.19   L 1081.20 130.58   L 1075.43 134.70   L 1068.30 137.62   L 1060.31 139.12   L 1053.85 139.39   L 1047.67 138.96   L 1041.77 137.83   L 1036.15 136.00   L 1036.15 136.00   L 1036.15 136.00   L 1028.25 131.94   L 1020.98 126.31   L 1019.35 124.16   Z"/>
<path fill="#000000" d="   M 73.35 87.83   L 73.46 87.81   L 73.71 87.61   L 101.46 44.97   L 101.85 44.51   L 104.22 43.83   L 112.60 43.92   L 119.57 43.96   L 120.15 44.55   L 120.15 136.78   L 119.19 137.73   L 102.60 137.73   L 101.96 137.09   L 101.96 75.67   L 101.66 75.49   L 101.59 75.56   L 74.80 116.29   L 73.37 117.43   L 71.93 116.29   L 45.10 75.59   L 45.03 75.52   L 44.73 75.70   L 44.79 137.12   L 44.15 137.76   L 27.56 137.78   L 26.60 136.83   L 26.51 44.60   L 27.09 44.01   L 34.06 43.96   L 42.44 43.86   L 44.81 44.54   L 45.20 45.00   L 73.00 87.61   L 73.24 87.81   L 73.35 87.83   Z"/>
<path fill="#000000" d="   M 181.37 43.80   L 189.76 43.97   L 190.77 44.34   L 192.26 47.50   L 219.56 117.90   L 226.86 137.24   L 226.56 137.76   L 226.49 137.77   L 208.85 137.77   L 207.87 137.46   L 207.25 136.64   L 200.96 119.09   L 199.46 118.03   L 181.26 118.00   L 163.06 117.98   L 161.56 119.03   L 155.22 136.56   L 154.60 137.38   L 153.61 137.69   L 135.97 137.64   L 135.91 137.63   L 135.61 137.10   L 142.96 117.79   L 170.47 47.47   L 171.97 44.31   L 172.99 43.94   L 181.37 43.80   Z   M 168.08 101.70   L 168.08 101.93   L 168.37 102.12   L 193.86 102.25   L 194.16 101.84   L 181.59 66.76   L 181.57 66.71   L 181.01 66.76   L 168.08 101.70   Z"/>
<path fill="#000000" d="   M 239.56 44.36   L 240.02 43.89   L 240.02 43.89   L 274.39 43.93   L 281.18 44.25   L 286.88 45.22   L 291.89 46.87   L 296.47 49.36   L 298.16 50.61   L 303.35 55.90   L 305.99 60.01   L 307.93 64.43   L 309.17 69.09   L 309.71 73.90   L 309.56 78.78   L 308.71 83.64   L 307.17 88.40   L 304.95 92.98   L 300.36 98.78   L 293.90 103.43   L 286.04 106.52   L 277.74 107.78   L 258.49 107.89   L 258.49 107.89   L 257.95 108.43   L 257.95 137.38   L 257.89 137.57   L 257.63 137.70   L 240.72 137.70   L 239.89 137.37   L 239.51 136.57   L 239.66 131.80   L 239.86 127.82   L 239.90 102.49   L 239.56 44.36   Z   M 257.87 60.62   L 258.03 91.34   L 258.61 91.91   L 275.97 91.82   L 281.85 90.68   L 286.83 87.48   L 290.14 82.71   L 291.28 77.10   L 291.28 77.10   L 291.28 77.10   L 291.26 74.50   L 290.06 68.91   L 286.70 64.17   L 281.70 61.03   L 275.81 59.94   L 258.45 60.03   L 257.88 60.53   L 257.87 60.62   Z"/>
<path fill="#000000" d="   M 343.65 44.51   L 343.65 119.97   L 344.26 120.58   L 385.05 120.58   L 385.66 121.19   L 385.66 137.15   L 385.48 137.58   L 385.05 137.76   L 325.76 137.76   L 325.15 137.15   L 325.15 44.51   L 325.21 44.25   L 325.76 43.90   L 343.04 43.90   L 343.65 44.50   L 343.65 44.51   Z"/>
<path fill="#000000" d="   M 984.73 106.28   L 985.21 106.25   L 985.24 106.12   L 985.24 44.47   L 985.78 43.94   L 1003.13 43.94   L 1003.13 43.94   L 1003.59 44.41   L 1003.59 136.41   L 1003.18 137.40   L 1002.20 137.82   L 988.96 137.89   L 985.83 137.13   L 983.77 135.21   L 941.56 74.76   L 940.99 74.80   L 940.95 74.95   L 940.95 137.13   L 940.83 137.50   L 940.34 137.74   L 923.39 137.74   L 923.17 137.68   L 922.94 137.29   L 922.94 44.66   L 923.39 43.95   L 923.72 43.88   L 939.87 43.88   L 941.10 44.18   L 942.06 45.03   L 984.73 106.28   Z"/>
<path fill="#000000" d="   M 417.87 98.90   L 417.87 120.29   L 418.05 120.72   L 418.48 120.90   L 460.32 120.90   L 460.75 121.08   L 460.93 121.51   L 460.93 137.11   L 460.84 137.43   L 460.32 137.72   L 400.11 137.72   L 399.50 137.11   L 399.50 44.54   L 399.50 44.53   L 400.11 43.93   L 459.27 43.93   L 459.88 44.53   L 459.88 44.54   L 459.88 59.35   L 459.88 59.36   L 459.27 59.96   L 418.47 59.96   L 417.86 60.57   L 417.86 60.57   L 417.86 81.56   L 418.47 82.17   L 453.55 82.17   L 454.16 82.78   L 454.16 97.68   L 454.02 98.07   L 453.55 98.29   L 418.48 98.29   L 417.87 98.90   Z"/>
<path fill="#000000" d="   M 515.99 44.46   L 516.47 43.98   L 553.70 43.92   L 562.64 44.76   L 571.25 47.31   L 579.18 51.44   L 586.14 57.02   L 591.86 63.81   L 596.11 71.57   L 598.73 80.00   L 599.63 88.76   L 599.63 92.58   L 598.77 101.34   L 596.17 109.77   L 591.95 117.55   L 586.26 124.36   L 579.32 129.96   L 571.40 134.13   L 562.81 136.70   L 553.86 137.58   L 516.63 137.64   L 516.15 137.16   L 515.99 44.46   Z   M 534.60 60.74   L 534.60 120.34   L 534.64 120.55   L 535.26 121.00   L 552.35 121.00   L 557.98 120.45   L 563.39 118.80   L 568.38 116.14   L 572.75 112.55   L 576.34 108.18   L 579.00 103.19   L 580.65 97.78   L 581.20 92.15   L 581.20 88.93   L 580.65 83.30   L 579.00 77.89   L 576.34 72.90   L 572.75 68.53   L 568.38 64.94   L 563.39 62.28   L 557.98 60.63   L 552.35 60.08   L 535.26 60.08   L 534.63 60.54   L 534.60 60.74   Z"/>
<path fill="#000000" d="   M 670.89 97.53   L 670.89 97.53   L 670.05 98.36   L 635.05 98.32   L 634.56 98.81   L 634.56 98.81   L 634.64 120.28   L 635.30 120.95   L 677.09 120.93   L 677.53 121.16   L 677.63 121.47   L 677.68 137.27   L 677.61 137.52   L 677.19 137.76   L 617.18 137.77   L 616.24 136.82   L 616.19 44.48   L 616.69 43.98   L 675.91 43.98   L 676.58 44.65   L 676.58 59.38   L 675.93 60.02   L 635.08 59.99   L 634.59 60.44   L 634.59 60.48   L 634.55 81.77   L 634.55 81.78   L 635.00 82.22   L 670.45 82.20   L 670.66 82.26   L 670.87 82.62   L 670.89 97.53   Z"/>
<path fill="#000000" d="   M 796.61 136.96   L 795.88 137.69   L 779.00 137.69   L 778.27 136.96   L 778.27 44.64   L 779.00 43.91   L 795.88 43.91   L 796.61 44.64   L 796.61 136.96   Z"/>
<path fill="#000000" d="   M 296.69 198.53   L 292.26 194.55   L 287.34 192.11   L 282.80 191.25   L 276.34 191.88   L 270.51 194.45   L 265.80 198.67   L 262.65 204.25   L 262.37 205.11   L 261.58 208.80   L 261.42 212.51   L 262.86 219.63   L 264.42 222.86   L 266.48 225.76   L 269.04 228.22   L 272.06 230.17   L 275.28 231.44   L 278.86 232.11   L 284.22 232.00   L 289.04 230.66   L 289.04 230.66   L 292.89 228.42   L 296.32 225.20   L 297.32 224.70   L 298.37 225.06   L 298.39 225.08   L 305.23 231.38   L 305.28 232.15   L 301.19 236.28   L 296.58 239.44   L 292.58 241.21   L 288.17 242.40   L 279.32 243.05   L 270.76 241.58   L 263.26 238.17   L 259.93 235.73   L 256.96 232.80   L 252.52 225.92   L 250.11 218.91   L 249.32 211.91   L 250.45 203.71   L 253.81 195.52   L 258.16 189.61   L 258.16 189.61   L 261.45 186.76   L 265.27 184.42   L 273.72 181.21   L 282.12 180.26   L 282.12 180.26   L 282.12 180.26   L 290.71 181.62   L 299.25 185.37   L 304.71 189.65   L 305.09 190.65   L 304.67 191.63   L 297.74 198.57   L 296.71 198.55   L 296.69 198.53   Z"/>
<path fill="#000000" d="   M 661.3712 211.5109   L 662.0394 205.3575   L 663.9109 199.4513   L 666.9137 194.0193   L 670.9324 189.2702   L 675.8126 185.3865   L 681.3668 182.5174   L 687.3815 180.7733   L 693.6255 180.2212   L 699.8590 180.8822   L 705.8423 182.7310   L 711.3455 185.6965   L 716.1572 189.6648   L 720.0924 194.4834   L 723.0000 199.9670   L 724.7681 205.9049   L 725.3288 212.0691   L 724.6606 218.2225   L 722.7891 224.1287   L 719.7863 229.5607   L 715.7676 234.3098   L 710.8874 238.1935   L 705.3332 241.0626   L 699.3185 242.8067   L 693.0745 243.3588   L 686.8410 242.6978   L 680.8577 240.8490   L 675.3545 237.8835   L 670.5428 233.9152   L 666.6076 229.0966   L 663.7000 223.6130   L 661.9319 217.6751   L 661.3712 211.5109   Z   M 693.5557 191.1211   L 689.6617 191.4762   L 685.9090 192.6092   L 682.4419 194.4767   L 679.3936 197.0067   L 676.8813 200.1023   L 675.0014 203.6442   L 673.8263 207.4966   L 673.4011 211.5112   L 673.7421 215.5338   L 674.8363 219.4099   L 676.6416 222.9905   L 679.0885 226.1380   L 682.0832 228.7313   L 685.5104 230.6710   L 689.2385 231.8823   L 693.1243 232.3189   L 697.0183 231.9638   L 700.7710 230.8308   L 704.2381 228.9633   L 707.2864 226.4333   L 709.7987 223.3377   L 711.6786 219.7958   L 712.8537 215.9434   L 713.2789 211.9288   L 712.9379 207.9062   L 711.8437 204.0301   L 710.0384 200.4495   L 707.5915 197.3020   L 704.5968 194.7087   L 701.1696 192.7690   L 697.4415 191.5577   L 693.5557 191.1211   Z"/>
<path fill="#000000" d="   M 837.95 224.42   L 843.08 229.13   L 847.95 231.63   L 851.79 232.30   L 856.28 232.05   L 860.24 230.92   L 862.58 228.87   L 863.08 227.72   L 863.53 224.74   L 863.03 222.35   L 861.06 219.93   L 857.12 217.86   L 852.19 216.24   L 843.65 213.25   L 837.50 209.85   L 835.47 208.06   L 833.01 204.18   L 831.93 199.72   L 832.22 194.74   L 833.91 189.96   L 836.48 186.47   L 839.90 183.78   L 844.35 181.71   L 849.07 180.61   L 856.36 180.43   L 863.05 181.89   L 863.05 181.89   L 863.05 181.89   L 868.54 184.60   L 873.55 188.63   L 874.03 189.77   L 873.56 190.92   L 873.56 190.92   L 867.25 197.22   L 866.45 197.54   L 865.67 197.18   L 865.63 197.14   L 862.06 193.70   L 858.05 191.65   L 858.05 191.65   L 858.05 191.65   L 853.72 190.97   L 848.96 191.59   L 847.00 192.43   L 845.36 193.81   L 844.38 195.34   L 843.98 197.10   L 844.36 199.21   L 845.39 200.96   L 845.39 200.96   L 847.12 202.50   L 849.46 203.56   L 853.46 204.74   L 863.66 208.12   L 869.82 211.74   L 873.42 216.08   L 875.41 221.28   L 875.66 226.84   L 874.03 232.26   L 873.26 233.62   L 871.05 236.48   L 867.36 239.50   L 863.08 241.56   L 858.20 242.77   L 852.48 243.14   L 845.91 242.33   L 839.69 240.36   L 834.25 237.34   L 830.40 233.68   L 830.05 232.59   L 830.49 231.53   L 837.04 224.43   L 837.93 224.40   L 837.95 224.42   Z"/>
<path fill="#000000" d="   M 344.00 241.97   L 333.35 241.97   L 332.63 241.25   L 332.63 182.32   L 333.40 181.53   L 360.14 181.51   L 365.61 182.41   L 370.44 184.47   L 374.42 187.55   L 377.38 191.56   L 379.20 196.75   L 379.39 202.71   L 378.26 207.61   L 376.06 211.71   L 376.06 211.71   L 376.06 211.71   L 372.68 215.09   L 368.18 217.63   L 367.86 218.49   L 367.88 218.52   L 380.83 240.95   L 380.85 241.56   L 380.27 241.93   L 369.31 241.92   L 368.36 241.68   L 366.58 239.57   L 366.44 239.33   L 355.67 220.79   L 354.74 219.87   L 353.48 219.53   L 345.23 219.53   L 344.77 220.00   L 344.77 241.20   L 344.00 241.97   Z   M 344.63 192.40   L 344.75 209.00   L 344.75 209.06   L 345.16 209.41   L 358.65 209.31   L 361.97 208.67   L 364.77 206.88   L 366.63 204.23   L 367.27 201.11   L 367.27 199.97   L 366.58 196.86   L 364.68 194.23   L 361.86 192.49   L 358.53 191.89   L 345.04 191.99   L 344.64 192.34   L 344.63 192.40   Z"/>
<path fill="#000000" d="   M 445.40 206.79   L 445.40 216.12   L 445.34 216.38   L 444.79 216.73   L 421.45 216.73   L 420.84 217.34   L 420.84 230.48   L 421.45 231.09   L 449.30 231.09   L 449.91 231.70   L 449.91 241.35   L 449.79 241.72   L 449.30 241.96   L 409.59 241.96   L 408.98 241.35   L 408.98 181.93   L 409.59 181.32   L 448.44 181.32   L 449.05 181.93   L 449.05 191.41   L 448.44 192.02   L 421.35 192.02   L 420.74 192.63   L 420.74 205.57   L 421.35 206.18   L 444.79 206.18   L 445.22 206.36   L 445.40 206.79   Z"/>
<path fill="#000000" d="   M 503.90 181.27   L 509.59 181.40   L 510.49 182.06   L 533.62 241.45   L 533.64 241.52   L 533.27 241.96   L 522.07 241.96   L 520.63 240.97   L 516.51 230.40   L 515.31 229.55   L 503.83 229.48   L 492.36 229.51   L 491.15 230.36   L 487.00 240.92   L 485.56 241.91   L 474.36 241.87   L 473.99 241.43   L 474.01 241.36   L 497.32 182.04   L 498.22 181.38   L 503.90 181.27   Z   M 495.52 218.35   L 495.95 218.97   L 511.48 219.16   L 511.61 219.14   L 511.92 218.55   L 504.42 196.83   L 503.57 196.79   L 503.55 196.82   L 495.52 218.35   Z"/>
<path fill="#000000" d="   M 570.69 181.34   L 594.51 181.35   L 595.15 182.09   L 595.22 191.45   L 594.70 191.97   L 577.69 191.97   L 576.81 192.73   L 576.80 192.86   L 576.80 241.47   L 576.33 241.96   L 570.94 241.99   L 565.56 242.00   L 565.08 241.52   L 564.68 192.91   L 564.65 192.69   L 563.78 192.03   L 546.77 192.17   L 546.51 192.10   L 546.25 191.65   L 546.24 182.29   L 546.87 181.55   L 570.69 181.34   Z"/>
<path fill="#000000" d="   M 633.98 241.32   L 633.33 241.97   L 622.73 241.97   L 622.08 241.32   L 622.08 181.94   L 622.73 181.29   L 633.33 181.29   L 633.98 181.94   L 633.98 241.32   Z"/>
<path fill="#000000" d="   M 773.38 214.87   L 764.17 201.69   L 764.10 201.62   L 763.78 201.82   L 763.78 241.34   L 763.14 241.98   L 752.55 241.98   L 752.20 241.86   L 751.96 241.39   L 751.96 181.96   L 752.07 181.62   L 752.56 181.36   L 762.42 181.36   L 763.76 181.69   L 764.80 182.60   L 782.66 208.42   L 791.87 221.60   L 791.94 221.67   L 792.26 221.47   L 792.26 181.95   L 792.90 181.31   L 803.49 181.31   L 803.84 181.43   L 804.08 181.90   L 804.08 241.33   L 803.97 241.68   L 803.48 241.93   L 793.62 241.93   L 792.28 241.60   L 791.24 240.69   L 773.38 214.87   Z"/>
<path fill="#a52325" d="   M 616.32 812.22   L 616.00 795.50   L 615.38 785.83   L 614.32 782.72   L 614.32 782.72   L 612.76 780.79   L 610.56 779.23   L 608.94 778.89   L 606.95 779.18   L 601.95 781.41   L 585.94 791.56   L 584.24 792.34   L 582.79 792.84   L 577.93 794.24   L 574.12 794.26   L 574.00 794.24   L 559.48 790.48   L 551.83 788.15   L 545.64 786.31   L 534.44 782.72   L 524.53 780.15   L 522.46 779.85   L 520.22 779.55   L 517.18 779.20   L 512.81 779.58   L 508.70 780.67   L 508.70 780.67   L 508.16 780.88   L 497.60 785.75   L 497.60 785.75   L 489.81 790.35   L 482.39 795.64   L 479.77 798.57   L 478.64 801.31   L 478.27 804.49   L 477.55 815.13   L 370.77 837.29   L 370.55 837.34   L 365.71 838.10   L 362.40 837.66   L 359.34 835.67   L 358.85 835.13   L 357.83 833.12   L 357.49 830.82   L 358.55 824.55   L 368.49 790.49   L 369.98 783.84   L 370.64 777.16   L 370.64 777.16   L 370.67 774.26   L 370.40 772.70   L 367.70 766.79   L 364.14 762.60   L 210.80 634.38   L 207.62 631.36   L 206.06 628.96   L 205.62 626.55   L 205.97 624.25   L 207.06 621.94   L 207.85 621.08   L 213.47 618.25   L 231.86 610.85   L 236.43 608.68   L 238.44 607.39   L 239.23 606.60   L 240.83 603.55   L 241.50 600.48   L 241.47 597.33   L 239.44 588.58   L 238.54 585.45   L 231.68 560.69   L 213.36 493.99   L 212.60 490.14   L 212.70 487.41   L 214.10 484.64   L 216.14 483.13   L 218.69 482.39   L 221.92 482.25   L 225.75 482.76   L 317.07 501.42   L 322.79 501.90   L 324.84 501.43   L 326.61 500.36   L 327.44 499.42   L 328.89 495.31   L 329.56 489.25   L 329.57 485.88   L 329.71 478.70   L 329.99 475.26   L 330.65 460.18   L 331.24 457.42   L 333.04 454.57   L 335.05 452.93   L 337.38 452.23   L 339.83 452.38   L 342.20 453.27   L 344.27 454.79   L 358.78 469.13   L 406.90 517.50   L 417.66 528.38   L 421.68 531.52   L 425.32 532.87   L 429.56 532.56   L 432.10 531.50   L 433.95 529.88   L 433.95 529.88   L 434.98 528.04   L 435.50 525.78   L 435.48 520.72   L 434.53 514.00   L 406.97 363.66   L 406.51 357.12   L 407.03 354.72   L 408.18 352.60   L 409.77 351.08   L 412.03 349.90   L 414.15 349.57   L 416.41 349.94   L 422.64 352.89   L 423.11 353.16   L 466.03 377.45   L 470.09 378.86   L 473.80 378.94   L 476.96 377.96   L 479.80 376.13   L 482.54 373.31   L 484.86 369.86   L 549.42 257.44   L 552.25 254.87   L 553.18 254.52   L 557.35 254.81   L 559.94 256.40   L 562.11 259.17   L 627.07 370.42   L 629.72 373.91   L 633.03 376.64   L 636.51 378.18   L 640.26 378.55   L 644.71 377.20   L 686.45 353.69   L 687.50 353.08   L 692.71 350.36   L 696.33 349.49   L 699.23 349.92   L 701.30 351.08   L 702.82 353.12   L 703.66 356.35   L 703.68 360.33   L 702.96 365.40   L 675.23 518.37   L 674.69 523.55   L 675.21 527.02   L 677.58 530.49   L 681.69 532.54   L 686.60 532.64   L 686.60 532.64   L 689.51 531.52   L 692.22 529.48   L 724.46 497.21   L 742.97 478.61   L 765.97 455.41   L 768.55 453.37   L 771.30 452.40   L 772.94 452.32   L 776.77 453.54   L 778.30 455.03   L 779.93 457.93   L 780.42 460.79   L 780.96 476.85   L 780.99 477.14   L 781.39 487.38   L 781.52 494.19   L 781.98 496.86   L 783.08 499.05   L 783.08 499.05   L 785.08 500.95   L 787.88 502.27   L 789.00 502.34   L 885.49 482.67   L 892.18 482.63   L 895.07 483.50   L 895.07 483.50   L 896.57 485.07   L 897.55 487.42   L 897.76 491.01   L 896.83 495.87   L 872.70 584.95   L 869.53 597.77   L 869.76 600.66   L 871.00 604.53   L 872.38 607.00   L 874.21 608.89   L 876.91 610.38   L 897.70 618.06   L 902.75 620.71   L 904.24 622.19   L 905.21 623.99   L 905.21 627.99   L 903.28 631.68   L 902.47 632.46   L 773.88 740.12   L 759.86 751.84   L 749.03 760.86   L 745.60 764.30   L 743.71 767.22   L 741.72 774.17   L 741.56 777.16   L 742.01 780.04   L 742.54 782.84   L 743.16 786.26   L 754.07 827.47   L 754.34 831.54   L 752.90 835.14   L 751.18 836.67   L 748.81 837.48   L 745.54 837.75   L 742.01 837.40   L 685.32 826.32   L 616.32 812.22   Z"/>
<path fill="#000000" d="   M 616.32 812.22   L 616.42 862.25   L 615.46 868.55   L 612.50 875.53   L 572.09 950.31   L 569.82 953.10   L 569.82 953.10   L 566.72 954.74   L 562.75 955.31   L 535.39 955.59   L 531.63 955.37   L 531.47 955.35   L 527.44 954.69   L 524.81 953.57   L 522.04 950.69   L 517.62 942.89   L 484.44 881.67   L 480.48 873.83   L 478.34 867.27   L 477.52 859.00   L 477.55 815.13   L 478.27 804.49   L 478.64 801.31   L 479.77 798.57   L 479.77 798.57   L 482.39 795.64   L 489.81 790.35   L 497.60 785.75   L 497.60 785.75   L 508.16 780.88   L 508.70 780.67   L 508.70 780.67   L 512.81 779.58   L 517.18 779.20   L 520.22 779.55   L 522.46 779.85   L 524.53 780.15   L 534.44 782.72   L 545.64 786.31   L 551.83 788.15   L 559.48 790.48   L 574.00 794.24   L 574.12 794.26   L 577.93 794.24   L 582.79 792.84   L 584.24 792.34   L 585.94 791.56   L 601.95 781.41   L 606.95 779.18   L 608.94 778.89   L 610.56 779.23   L 612.76 780.79   L 614.32 782.72   L 614.32 782.72   L 615.38 785.83   L 616.00 795.50   L 616.32 812.22   Z"/>
<path fill="#000000" d="   M 554.91 978.47   L 555.37 979.57   L 556.47 980.02   L 674.25 980.04   L 682.08 980.78   L 689.01 982.92   L 694.96 986.47   L 699.33 991.11   L 699.93 992.02   L 701.20 994.35   L 703.06 1000.43   L 703.15 1006.71   L 701.56 1012.79   L 698.35 1018.31   L 696.75 1020.13   L 692.54 1023.44   L 687.17 1025.86   L 680.63 1027.31   L 673.00 1027.77   L 423.00 1027.75   L 421.81 1027.75   L 413.61 1028.32   L 411.03 1029.27   L 408.98 1030.90   L 407.66 1033.29   L 407.15 1036.64   L 407.50 1039.46   L 408.54 1041.51   L 410.39 1043.06   L 412.76 1043.96   L 420.34 1044.50   L 421.64 1044.49   L 671.00 1044.48   L 679.91 1044.97   L 687.30 1046.57   L 693.13 1049.26   L 697.58 1053.06   L 698.99 1054.89   L 702.06 1060.81   L 703.28 1066.81   L 703.28 1066.81   L 703.28 1068.75   L 701.85 1076.69   L 700.38 1080.06   L 698.42 1083.03   L 698.42 1083.03   L 696.01 1085.55   L 693.13 1087.69   L 685.93 1090.83   L 680.71 1091.72   L 673.25 1092.01   L 419.75 1092.05   L 412.61 1092.86   L 410.27 1093.91   L 408.45 1095.59   L 407.49 1097.58   L 407.15 1100.21   L 407.66 1103.76   L 409.04 1106.20   L 410.88 1107.61   L 413.16 1108.45   L 420.31 1109.01   L 694.00 1108.98   L 696.98 1109.35   L 699.48 1110.45   L 701.73 1112.57   L 702.99 1114.99   L 703.27 1117.41   L 702.57 1119.93   L 700.97 1122.00   L 698.66 1123.41   L 695.81 1123.93   L 415.75 1123.96   L 410.48 1123.58   L 405.61 1122.41   L 401.48 1120.53   L 397.87 1117.88   L 394.20 1113.43   L 391.60 1107.65   L 390.77 1103.86   L 390.59 1099.94   L 391.02 1096.03   L 392.06 1092.23   L 393.69 1088.68   L 395.88 1085.48   L 398.38 1082.94   L 401.35 1080.89   L 403.53 1079.78   L 410.78 1077.39   L 418.75 1076.59   L 675.50 1076.59   L 681.47 1075.89   L 683.52 1074.99   L 685.14 1073.56   L 686.17 1071.67   L 686.62 1069.14   L 686.31 1065.86   L 685.15 1063.47   L 683.04 1061.66   L 680.30 1060.60   L 671.41 1059.94   L 670.50 1059.94   L 416.25 1059.95   L 410.75 1059.28   L 404.84 1057.71   L 399.45 1054.73   L 395.13 1050.53   L 392.48 1045.76   L 391.02 1040.50   L 390.59 1035.33   L 391.22 1030.37   L 392.92 1025.73   L 396.10 1021.10   L 400.67 1017.17   L 406.19 1014.30   L 413.15 1012.73   L 423.45 1012.41   L 423.76 1012.41   L 676.75 1012.38   L 679.47 1012.03   L 682.18 1010.99   L 684.24 1009.51   L 685.70 1007.51   L 686.49 1004.93   L 686.43 1002.47   L 685.57 1000.12   L 683.99 998.14   L 681.82 996.65   L 679.16 995.76   L 668.00 994.88   L 546.01 994.91   L 543.77 994.63   L 541.87 993.81   L 541.87 993.81   L 541.87 993.81   L 540.25 992.38   L 539.01 990.36   L 538.69 989.14   L 538.27 978.44   L 538.92 969.74   L 539.47 967.99   L 542.05 965.34   L 546.40 964.18   L 550.89 965.13   L 553.83 967.71   L 554.64 969.53   L 554.92 971.75   L 554.91 978.47   Z"/>
<path fill="#000000" d="   M 738.06 1140.80   L 737.48 1143.73   L 735.82 1146.22   L 733.33 1147.88   L 730.40 1148.46   L 363.48 1148.46   L 360.55 1147.88   L 358.06 1146.22   L 356.40 1143.73   L 355.82 1140.80   L 355.82 1140.72   L 356.40 1137.79   L 358.06 1135.30   L 360.55 1133.64   L 363.48 1133.06   L 730.40 1133.06   L 733.33 1133.64   L 735.82 1135.30   L 737.48 1137.79   L 738.06 1140.72   L 738.06 1140.80   Z"/>
</svg>